<svg xmlns="http://www.w3.org/2000/svg" viewBox="0 0 216.79 154.15"><defs><style>.cls-1{fill:#fff;}.cls-2{fill:none;stroke:#fff;stroke-linecap:round;stroke-miterlimit:10;stroke-width:2.16px;}</style></defs><title>anime chart</title><g id="Warstwa_2" data-name="Warstwa 2"><g id="stopka"><g id="Warstwa_2-2" data-name="Warstwa 2"><g id="Layer_1" data-name="Layer 1"><path class="cls-1" d="M20.29,54H42.9l1.84,45.07H18.6L20.29,54m-3-3-2,51.14H47.7l-2-51.14Z"/><path class="cls-2" d="M55,153.07a97.74,97.74,0,0,0-1.27-27.27c-1.84-10.45-8.05-25-8.05-25"/><path class="cls-2" d="M7.72,153.07A97.74,97.74,0,0,1,9,125.81c1.7-10.45,8.05-25,8.05-25"/><path class="cls-2" d="M2.92,91.48S-1.89,79.75,4,68.31A38.52,38.52,0,0,1,18.6,52.77"/><path class="cls-2" d="M44.73,52.77A39.5,39.5,0,0,1,59.29,68.31c5.93,11.44,1.13,23.17,1.13,23.17"/><path class="cls-1" d="M30.46,18.72A13.14,13.14,0,1,1,17.33,31.86,13.21,13.21,0,0,1,30.46,18.72M14.36,31.86h0A16,16,0,0,0,30.61,48,16.18,16.18,0,1,0,14.36,31.86Z"/></g></g><path class="cls-1" d="M210.88,7.78h-56V2.25a2.25,2.25,0,1,0-4.5,0V7.78H91.76a5.92,5.92,0,0,0-5.91,5.91v6.79a5.92,5.92,0,0,0,5.91,5.91h2.41v83.71a5.92,5.92,0,0,0,5.91,5.91H151.7V128.9L124,149.22a2.25,2.25,0,0,0,2.66,3.63l25.05-18.38V151a2.25,2.25,0,1,0,4.5,0V134.48l25.05,18.38a2.3,2.3,0,0,0,3.14-.48,2.25,2.25,0,0,0-.48-3.14L156.2,128.9V116h46.36a5.92,5.92,0,0,0,5.91-5.91V26.4h2.41a5.92,5.92,0,0,0,5.91-5.91V13.69A5.92,5.92,0,0,0,210.88,7.78ZM204,111.52H98.66V26.4H204ZM212.3,21.9h-122V12.28h122Z"/><path class="cls-1" d="M150.62,47a2,2,0,0,0-2,2V64.61H133a2,2,0,0,0-2,2A19.7,19.7,0,1,0,150.62,47Zm0,35.32a15.65,15.65,0,0,1-15.49-13.58h15.49a2,2,0,0,0,2-2V51.16a15.62,15.62,0,0,1-2,31.11Z"/><path class="cls-1" d="M143.72,44.85a14.93,14.93,0,0,0-14.91,14.91,2,2,0,0,0,2,2h12.87a2,2,0,0,0,2-2V46.88A2,2,0,0,0,143.72,44.85Zm-2,12.87h-8.6a10.86,10.86,0,0,1,8.6-8.61Z"/></g></g></svg>